<?xml version="1.0" encoding="utf-8"?>
<!-- Generator: Adobe Illustrator 16.0.0, SVG Export Plug-In . SVG Version: 6.00 Build 0)  -->
<!DOCTYPE svg PUBLIC "-//W3C//DTD SVG 1.1 Tiny//EN" "http://www.w3.org/Graphics/SVG/1.1/DTD/svg11-tiny.dtd">
<svg version="1.1" baseProfile="tiny" id="Layer_1" xmlns="http://www.w3.org/2000/svg" xmlns:xlink="http://www.w3.org/1999/xlink"
	 x="0px" y="0px" width="291.489px" height="36.169px" viewBox="0 0 291.489 36.169" xml:space="preserve">
<g>
	<path fill="#279BD4" d="M17.242,22.212V7.022h-0.288c-1.476,0-1.476-2.268,0-2.268h2.844c1.44,0,1.44,2.268,0,2.268h-0.288v15.154
		c0,5.004-4.247,8.963-9.07,8.963s-9.071-3.959-9.071-8.963V7.022H1.08c-1.439,0-1.439-2.268,0-2.268h2.844
		c1.477,0,1.477,2.268,0,2.268H3.635v15.19c0,3.743,3.168,6.695,6.804,6.695S17.242,25.956,17.242,22.212z"/>
	<path fill="#279BD4" d="M27.827,30.276c0,0.468-0.396,0.863-0.863,0.863h-1.872c-1.476,0-1.476-2.268,0-2.268h0.468V14.473h-0.468
		c-1.476,0-1.476-2.231,0-2.231h1.872c0.468,0,0.863,0.396,0.863,0.9v2.304c1.656-2.448,3.96-3.204,6.695-3.204
		c0.612-0.036,1.188,0.324,1.188,1.08c0,1.152-1.188,1.152-1.188,1.152h-0.107c-2.916,0-6.588,1.62-6.588,5.615V30.276z"/>
	<path fill="#279BD4" d="M39.671,31.139c-1.439,0-1.439-2.268,0-2.268h0.504V5.942h-0.504c-1.439,0-1.439-2.232,0-2.232h1.908
		c0.468,0,0.864,0.396,0.864,0.9v11.375c0,0,1.943-3.743,6.982-3.743c5.147,0,9.179,4.319,9.179,9.503
		c0,5.255-4.067,9.575-9.395,9.575c-2.771,0-5.219-1.188-6.767-3.348v2.304c0,0.468-0.396,0.863-0.864,0.863H39.671z M49.319,29.051
		c4.392,0,7.127-3.491,7.055-7.343c-0.072-3.924-3.096-7.235-7.019-7.235c-4.14,0-6.911,3.528-6.911,7.344
		C42.444,27.251,46.979,29.087,49.319,29.051z"/>
	<path fill="#279BD4" d="M79.089,31.139c-0.469,0-0.864-0.396-0.864-0.863v-2.304c-1.548,2.159-3.996,3.348-6.768,3.348
		c-5.327,0-9.395-4.32-9.395-9.575c0-5.184,4.031-9.503,9.179-9.503c5.039,0,6.983,3.743,6.983,3.743v-2.843
		c0-0.504,0.396-0.9,0.864-0.9h1.907c1.439,0,1.439,2.268,0,2.268h-0.504v14.362h0.504c1.439,0,1.439,2.268,0,2.268H79.089z
		 M71.314,14.509c-3.924,0-7.02,3.275-7.02,7.199c0,3.852,2.664,7.343,7.056,7.343c2.34,0.036,7.055-1.8,7.055-7.234
		C78.405,18.001,75.454,14.509,71.314,14.509z"/>
	<path fill="#279BD4" d="M96.802,12.242c5.398,0,7.811,3.527,7.811,8.243v8.387h0.684c1.44,0,1.44,2.268,0,2.268h-3.6
		c-1.439,0-1.439-2.268,0-2.268h0.648v-8.387c0-3.456-1.584-5.976-5.543-5.976c-3.564,0-6.372,2.016-6.372,6.407v7.955h0.648
		c1.439,0,1.439,2.268,0,2.268h-3.6c-1.439,0-1.439-2.268,0-2.268h0.647V14.545h-0.827c-1.44,0-1.44-2.304,0-2.304h2.231
		c0.504,0,0.899,0.396,0.899,0.9v2.016C91.871,13.069,94.39,12.242,96.802,12.242z"/>
	<path fill="#279BD4" d="M115.342,28.872c1.476,0,1.476,2.268,0,2.268h-3.563c-1.439,0-1.439-2.268,0-2.268h0.647V7.022h-0.468
		c-1.439,0-1.439-2.268,0-2.268h9.863c4.247,0,7.522,3.528,7.595,7.595c0.072,4.211-3.348,7.631-7.595,7.631h-7.128v8.891H115.342z
		 M114.694,17.713h7.128c3.023,0,5.363-2.304,5.363-5.327c0-2.916-2.376-5.364-5.363-5.364h-7.128V17.713z"/>
	<path fill="#279BD4" d="M134.134,6.014c-1.439,0-1.439-2.304,0-2.304h2.232c0.504,0,0.899,0.396,0.899,0.9v10.727
		c1.26-1.764,3.708-3.095,6.371-3.095c5.184-0.216,7.812,3.527,7.812,8.243v8.387h0.684c1.439,0,1.439,2.268,0,2.268h-3.6
		c-1.439,0-1.439-2.268,0-2.268h0.648v-8.387c0-3.636-1.584-5.976-5.544-5.976c-3.888,0-6.371,3.096-6.371,5.472v8.891h0.648
		c1.439,0,1.439,2.268,0,2.268h-3.6c-1.44,0-1.44-2.268,0-2.268h0.647V6.014H134.134z"/>
	<path fill="#279BD4" d="M165.922,31.248c-5.22,0.072-9.539-4.283-9.611-9.431c-0.071-5.184,4.284-9.684,9.467-9.684
		c4.932,0,9.755,4.14,9.611,9.396C175.389,26.82,171.285,31.175,165.922,31.248z M165.886,14.401c-3.995,0-7.415,3.348-7.343,7.379
		c0.071,3.995,3.383,7.235,7.379,7.235c4.176,0,7.236-3.456,7.236-7.487C173.158,17.569,169.702,14.401,165.886,14.401z"/>
	<path fill="#279BD4" d="M183.814,14.545v11.41c0,1.8,1.295,2.916,2.951,2.952c0.396,0,1.188-0.108,1.619-0.252
		c0.613-0.216,1.117,0.036,1.369,0.576s0.035,1.296-0.686,1.512c-0.719,0.252-1.439,0.396-2.123,0.396
		c-3.924,0-5.398-2.592-5.398-6.083V14.545h-1.656c-1.439,0-1.439-2.304,0-2.304h1.656V7.454c0-0.72,0.539-1.08,1.115-1.08
		s1.152,0.36,1.152,1.08v4.788h3.67c0.756,0,1.117,0.576,1.117,1.152c0,0.576-0.361,1.152-1.117,1.152H183.814z"/>
	<path fill="#279BD4" d="M202.209,31.248c-5.219,0.072-9.539-4.283-9.611-9.431c-0.072-5.184,4.283-9.684,9.467-9.684
		c4.932,0,9.756,4.14,9.611,9.396C211.676,26.82,207.572,31.175,202.209,31.248z M202.172,14.401c-3.994,0-7.414,3.348-7.342,7.379
		c0.072,3.995,3.383,7.235,7.379,7.235c4.176,0,7.234-3.456,7.234-7.487C209.443,17.569,205.988,14.401,202.172,14.401z"/>
	<path fill="#279BD4" d="M220.209,16.813h10.258c1.441,0,1.441,2.304,0,2.304h-10.258v9.791h0.287c1.477,0,1.477,2.268,0,2.268
		h-2.842c-1.477,0-1.477-2.268,0-2.268h0.287V7.022h-0.469c-1.475,0-1.475-2.268,0-2.268h16.055c0.756,0,1.115,0.612,1.08,1.188
		v1.583c0,1.44-2.268,1.44-2.268,0V7.022h-12.131V16.813z"/>
	<path fill="#279BD4" d="M246.453,31.32c-5.58,0-9.646-4.284-9.646-9.575c0-5.184,4.066-9.683,9.215-9.683
		c5.074,0,8.35,4.284,8.494,9.503c0,0.647-0.324,1.367-1.115,1.367h-14.326c0.574,3.636,3.67,6.119,7.342,6.119
		c1.297,0,3.24-0.323,4.393-0.899c0.863-0.432,1.367-0.072,1.584,0.324c0.252,0.504,0.143,1.188-0.504,1.548
		C250.447,30.851,248.072,31.32,246.453,31.32z M239.074,20.665h13.102c-0.576-3.563-2.664-6.335-6.191-6.335
		C242.492,14.329,239.613,17.245,239.074,20.665z"/>
	<path fill="#279BD4" d="M269.996,12.098c0.539,0,1.115,0.288,1.115,1.008v4.248c-0.035,0.576-0.539,0.972-1.08,0.972
		c-0.648,0-1.115-0.432-1.115-1.044c0-2.16-2.016-3.204-4.068-3.204c-1.799,0-4.066,1.008-4.066,3.024c0,1.8,1.764,2.7,5.074,3.491
		c2.953,0.721,5.904,1.477,5.904,5.04c0,3.491-3.385,5.507-6.48,5.507c-1.799,0-3.742-0.72-4.787-1.907v0.899
		c0,0.72-0.576,1.008-1.115,1.008s-1.08-0.288-1.08-1.008v-4.499c0-0.648,0.576-1.116,1.152-1.116c0.719,0,1.223,0.504,1.223,1.188
		c0,2.484,2.412,3.384,4.572,3.348c1.871,0,4.283-1.26,4.283-3.419c0-2.16-2.412-2.556-4.176-2.952
		c-4.643-1.008-6.73-2.663-6.73-5.579c0-3.276,3.096-5.04,5.975-5.04c1.836,0,3.457,0.792,4.32,1.872v-0.828
		C268.916,12.386,269.455,12.098,269.996,12.098z"/>
	<path fill="#279BD4" d="M279.824,14.545v11.41c0,1.8,1.297,2.916,2.951,2.952c0.396,0,1.189-0.108,1.621-0.252
		c0.611-0.216,1.115,0.036,1.367,0.576s0.035,1.296-0.684,1.512c-0.721,0.252-1.439,0.396-2.123,0.396c-3.924,0-5.4-2.592-5.4-6.083
		V14.545H275.9c-1.439,0-1.439-2.304,0-2.304h1.656V7.454c0-0.72,0.541-1.08,1.115-1.08c0.576,0,1.152,0.36,1.152,1.08v4.788h3.672
		c0.756,0,1.115,0.576,1.115,1.152c0,0.576-0.359,1.152-1.115,1.152H279.824z"/>
</g>
</svg>
