<?xml version="1.0" encoding="utf-8"?>
<!-- Generator: Adobe Illustrator 16.0.0, SVG Export Plug-In . SVG Version: 6.00 Build 0)  -->
<!DOCTYPE svg PUBLIC "-//W3C//DTD SVG 1.1 Tiny//EN" "http://www.w3.org/Graphics/SVG/1.1/DTD/svg11-tiny.dtd">
<svg version="1.1" baseProfile="tiny" id="Layer_1" xmlns="http://www.w3.org/2000/svg" xmlns:xlink="http://www.w3.org/1999/xlink"
	 x="0px" y="0px" width="63px" height="40.75px" viewBox="0 0 63 40.75" xml:space="preserve" style="fill:#ffffff;">
<g>
	<path fill="#ffffff" d="M17.278,16.052c-1.44,0-1.44-2.268,0-2.268h2.124c0.504,0,0.9,0.396,0.9,0.864v15.73h0.864
		c1.439,0,1.439,2.304,0,2.304h-2.232c-0.504,0-0.9-0.396-0.9-0.9v-2.016c-1.44,2.088-3.959,2.916-6.371,2.916
		c-5.399,0-8.063-3.527-8.063-8.243v-8.387H2.844c-1.44,0-1.44-2.268,0-2.268h2.124c0.504,0,0.9,0.396,0.9,0.864v9.791
		c0,3.456,1.836,5.976,5.795,5.976c3.563,0,6.371-2.016,6.371-6.407v-7.955H17.278z"/>
	<path fill="#ffffff" d="M29.915,13.784c0.468,0,0.864,0.396,0.864,0.864v2.52c1.548-2.16,3.996-3.563,6.767-3.563
		c5.328,0,9.395,4.319,9.395,9.575c0,5.184-4.032,9.503-9.179,9.503c-5.04,0-6.983-3.744-6.983-3.744V39.16
		c0,0.504-0.396,0.9-0.864,0.9h-1.908c-1.44,0-1.44-2.231,0-2.231h0.504V16.052h-0.504c-1.44,0-1.44-2.268,0-2.268H29.915z
		 M37.69,30.449c3.924,0,6.947-3.311,7.019-7.234c0.072-3.852-2.664-7.343-7.055-7.343c-2.34-0.036-6.875,1.8-6.875,7.235
		C30.779,26.922,33.551,30.449,37.69,30.449z"/>
	<path fill="#ffffff" d="M59.83,14.936c0,0.576-0.36,1.152-1.116,1.152H56.23h-0.144h-0.72v14.506h2.448
		c1.476,0,1.476,2.088,0,2.088h-6.083c-1.476,0-1.476-2.088,0-2.088h1.368V16.088h-1.692c-1.439,0-1.439-2.304,0-2.304h1.692v-2.448
		c0-3.492,1.692-6.083,5.436-6.083c0.684,0,1.476,0.108,2.195,0.36c1.332,0.432,0.576,2.591-0.756,2.16
		c-0.432-0.144-1.224-0.288-1.62-0.288c-1.656,0.036-2.988,1.152-2.988,2.952v3.348h3.348C59.47,13.784,59.83,14.36,59.83,14.936z"
		/>
</g>
</svg>
